<?xml version="1.0" standalone="no"?>
<!DOCTYPE svg PUBLIC "-//W3C//DTD SVG 20010904//EN"
 "http://www.w3.org/TR/2001/REC-SVG-20010904/DTD/svg10.dtd">
<svg version="1.0" xmlns="http://www.w3.org/2000/svg"
 width="1280.000000pt" height="569.000000pt" viewBox="0 0 1280.000000 569.000000"
 preserveAspectRatio="xMidYMid meet">
<metadata>
Created by potrace 1.15, written by Peter Selinger 2001-2017
</metadata>
<g transform="translate(0.000000,569.000000) scale(0.100000,-0.100000)"
fill="#000000" stroke="none">
<path d="M0 2845 l0 -2845 6400 0 6400 0 0 2845 0 2845 -6400 0 -6400 0 0
-2845z m12254 2303 c14 -20 16 -255 16 -2298 0 -2043 -2 -2278 -16 -2298 l-15
-22 -5849 0 c-5304 0 -5850 1 -5864 16 -14 14 -16 237 -16 2301 0 2114 1 2288
17 2305 16 17 211 18 5864 18 l5848 0 15 -22z"/>
</g>
</svg>
